<mxfile host="app.diagrams.net" modified="2023-10-26T00:23:18.684Z" agent="Mozilla/5.0 (Windows NT 10.0; Win64; x64) AppleWebKit/537.36 (KHTML, like Gecko) Chrome/118.0.0.0 Safari/537.36 Edg/118.0.2088.46" etag="nhkhhcQCS-RNbrRBLbqi" version="22.0.8" type="github">
  <diagram name="HIGH LEVEL" id="Tls5sQZd4lBuIDUPravg">
    <mxGraphModel dx="1961" dy="1136" grid="1" gridSize="10" guides="1" tooltips="1" connect="1" arrows="1" fold="1" page="1" pageScale="1" pageWidth="1600" pageHeight="900" math="0" shadow="0">
      <root>
        <mxCell id="0" />
        <mxCell id="1" parent="0" />
        <mxCell id="WF4QXtZYfQVOUF7775vI-1" value="USER" style="ellipse;whiteSpace=wrap;html=1;aspect=fixed;fillColor=#e51400;strokeColor=#B20000;fontColor=#ffffff;" vertex="1" parent="1">
          <mxGeometry x="605" y="40" width="80" height="80" as="geometry" />
        </mxCell>
        <mxCell id="WF4QXtZYfQVOUF7775vI-3" value="" style="group" vertex="1" connectable="0" parent="1">
          <mxGeometry x="600" y="280" width="90" height="90" as="geometry" />
        </mxCell>
        <mxCell id="WF4QXtZYfQVOUF7775vI-4" value="" style="whiteSpace=wrap;html=1;aspect=fixed;fillColor=#008a00;fontColor=#ffffff;strokeColor=#005700;" vertex="1" parent="WF4QXtZYfQVOUF7775vI-3">
          <mxGeometry width="80" height="80" as="geometry" />
        </mxCell>
        <mxCell id="WF4QXtZYfQVOUF7775vI-5" value="WEB SERVERS" style="whiteSpace=wrap;html=1;aspect=fixed;fillColor=#008a00;fontColor=#ffffff;strokeColor=#005700;" vertex="1" parent="WF4QXtZYfQVOUF7775vI-3">
          <mxGeometry x="10" y="10" width="80" height="80" as="geometry" />
        </mxCell>
        <mxCell id="WF4QXtZYfQVOUF7775vI-6" value="POST SERVICE" style="whiteSpace=wrap;html=1;aspect=fixed;fillColor=#008a00;fontColor=#ffffff;strokeColor=#005700;" vertex="1" parent="1">
          <mxGeometry x="440" y="420" width="80" height="80" as="geometry" />
        </mxCell>
        <mxCell id="WF4QXtZYfQVOUF7775vI-7" value="FANOUT&lt;br&gt;SERVICE" style="whiteSpace=wrap;html=1;aspect=fixed;fillColor=#008a00;fontColor=#ffffff;strokeColor=#005700;" vertex="1" parent="1">
          <mxGeometry x="605" y="420" width="80" height="80" as="geometry" />
        </mxCell>
        <mxCell id="WF4QXtZYfQVOUF7775vI-8" value="NOTIFICATION&lt;br&gt;SERViCE" style="whiteSpace=wrap;html=1;aspect=fixed;fillColor=#008a00;fontColor=#ffffff;strokeColor=#005700;" vertex="1" parent="1">
          <mxGeometry x="760" y="420" width="80" height="80" as="geometry" />
        </mxCell>
        <mxCell id="WF4QXtZYfQVOUF7775vI-12" style="edgeStyle=orthogonalEdgeStyle;rounded=0;orthogonalLoop=1;jettySize=auto;html=1;exitX=0.5;exitY=1;exitDx=0;exitDy=0;entryX=0.5;entryY=0;entryDx=0;entryDy=0;" edge="1" parent="1" source="WF4QXtZYfQVOUF7775vI-5" target="WF4QXtZYfQVOUF7775vI-7">
          <mxGeometry relative="1" as="geometry" />
        </mxCell>
        <mxCell id="WF4QXtZYfQVOUF7775vI-13" style="edgeStyle=orthogonalEdgeStyle;rounded=0;orthogonalLoop=1;jettySize=auto;html=1;exitX=0;exitY=0.5;exitDx=0;exitDy=0;entryX=0.5;entryY=0;entryDx=0;entryDy=0;" edge="1" parent="1" source="WF4QXtZYfQVOUF7775vI-4" target="WF4QXtZYfQVOUF7775vI-6">
          <mxGeometry relative="1" as="geometry" />
        </mxCell>
        <mxCell id="WF4QXtZYfQVOUF7775vI-14" style="edgeStyle=orthogonalEdgeStyle;rounded=0;orthogonalLoop=1;jettySize=auto;html=1;exitX=1;exitY=0.5;exitDx=0;exitDy=0;entryX=0.5;entryY=0;entryDx=0;entryDy=0;" edge="1" parent="1" source="WF4QXtZYfQVOUF7775vI-5" target="WF4QXtZYfQVOUF7775vI-8">
          <mxGeometry relative="1" as="geometry" />
        </mxCell>
        <mxCell id="WF4QXtZYfQVOUF7775vI-15" value="POST CACHE" style="shape=hexagon;perimeter=hexagonPerimeter2;whiteSpace=wrap;html=1;fixedSize=1;fillColor=#fa6800;fontColor=#000000;strokeColor=#C73500;" vertex="1" parent="1">
          <mxGeometry x="390" y="560" width="120" height="80" as="geometry" />
        </mxCell>
        <mxCell id="WF4QXtZYfQVOUF7775vI-16" value="POST DB" style="shape=cylinder3;whiteSpace=wrap;html=1;boundedLbl=1;backgroundOutline=1;size=15;fillColor=#1ba1e2;fontColor=#ffffff;strokeColor=#006EAF;" vertex="1" parent="1">
          <mxGeometry x="440" y="690" width="60" height="80" as="geometry" />
        </mxCell>
        <mxCell id="WF4QXtZYfQVOUF7775vI-17" value="NEW FEED &lt;br&gt;CACHE" style="shape=hexagon;perimeter=hexagonPerimeter2;whiteSpace=wrap;html=1;fixedSize=1;fillColor=#fa6800;fontColor=#000000;strokeColor=#C73500;" vertex="1" parent="1">
          <mxGeometry x="575" y="560" width="120" height="80" as="geometry" />
        </mxCell>
        <mxCell id="WF4QXtZYfQVOUF7775vI-18" style="edgeStyle=orthogonalEdgeStyle;rounded=0;orthogonalLoop=1;jettySize=auto;html=1;exitX=0;exitY=0.5;exitDx=0;exitDy=0;entryX=0.442;entryY=0;entryDx=0;entryDy=0;entryPerimeter=0;" edge="1" parent="1" source="WF4QXtZYfQVOUF7775vI-6" target="WF4QXtZYfQVOUF7775vI-15">
          <mxGeometry relative="1" as="geometry" />
        </mxCell>
        <mxCell id="WF4QXtZYfQVOUF7775vI-19" style="edgeStyle=orthogonalEdgeStyle;rounded=0;orthogonalLoop=1;jettySize=auto;html=1;exitX=0.375;exitY=1;exitDx=0;exitDy=0;entryX=0.145;entryY=0;entryDx=0;entryDy=4.35;entryPerimeter=0;" edge="1" parent="1" source="WF4QXtZYfQVOUF7775vI-15" target="WF4QXtZYfQVOUF7775vI-16">
          <mxGeometry relative="1" as="geometry" />
        </mxCell>
        <mxCell id="WF4QXtZYfQVOUF7775vI-20" style="edgeStyle=orthogonalEdgeStyle;rounded=0;orthogonalLoop=1;jettySize=auto;html=1;exitX=0.5;exitY=1;exitDx=0;exitDy=0;entryX=0.575;entryY=-0.025;entryDx=0;entryDy=0;entryPerimeter=0;" edge="1" parent="1" source="WF4QXtZYfQVOUF7775vI-7" target="WF4QXtZYfQVOUF7775vI-17">
          <mxGeometry relative="1" as="geometry" />
        </mxCell>
        <mxCell id="WF4QXtZYfQVOUF7775vI-27" style="edgeStyle=orthogonalEdgeStyle;rounded=0;orthogonalLoop=1;jettySize=auto;html=1;exitX=0.5;exitY=1;exitDx=0;exitDy=0;entryX=0.5;entryY=0;entryDx=0;entryDy=0;" edge="1" parent="1" source="WF4QXtZYfQVOUF7775vI-23" target="WF4QXtZYfQVOUF7775vI-4">
          <mxGeometry relative="1" as="geometry" />
        </mxCell>
        <mxCell id="WF4QXtZYfQVOUF7775vI-23" value="LOAD BALANCER" style="shape=trapezoid;perimeter=trapezoidPerimeter;whiteSpace=wrap;html=1;fixedSize=1;fillColor=#d80073;fontColor=#ffffff;strokeColor=#A50040;" vertex="1" parent="1">
          <mxGeometry x="595" y="160" width="100" height="80" as="geometry" />
        </mxCell>
        <mxCell id="WF4QXtZYfQVOUF7775vI-25" style="edgeStyle=orthogonalEdgeStyle;rounded=0;orthogonalLoop=1;jettySize=auto;html=1;exitX=0;exitY=1;exitDx=0;exitDy=0;entryX=0.41;entryY=-0.037;entryDx=0;entryDy=0;entryPerimeter=0;" edge="1" parent="1" source="WF4QXtZYfQVOUF7775vI-1" target="WF4QXtZYfQVOUF7775vI-23">
          <mxGeometry relative="1" as="geometry" />
        </mxCell>
        <mxCell id="WF4QXtZYfQVOUF7775vI-26" style="edgeStyle=orthogonalEdgeStyle;rounded=0;orthogonalLoop=1;jettySize=auto;html=1;exitX=1;exitY=1;exitDx=0;exitDy=0;entryX=0.65;entryY=-0.025;entryDx=0;entryDy=0;entryPerimeter=0;" edge="1" parent="1" source="WF4QXtZYfQVOUF7775vI-1" target="WF4QXtZYfQVOUF7775vI-23">
          <mxGeometry relative="1" as="geometry" />
        </mxCell>
      </root>
    </mxGraphModel>
  </diagram>
</mxfile>
